Coordinates
nRows=200
nColumns=2
inDegrees=yes
endheader
time	ankle_angle_r	
4.3246	 -5.302298	
4.35786	 -5.304926	
4.39113	 -5.304307	
4.4244	 -5.301144	
4.45766	 -5.296789	
4.49093	 -5.294348	
4.52419	 -5.297223	
4.55746	 -5.302631	
4.59073	 -5.305943	
4.62399	 -5.306460	
4.65726	 -5.304369	
4.69052	 -5.300469	
4.72379	 -5.295550	
4.75706	 -5.287825	
4.79032	 -5.278039	
4.82359	 -5.270067	
4.85685	 -5.262733	
4.89012	 -5.252595	
4.92339	 -5.241616	
4.95665	 -5.234300	
4.98992	 -5.233043	
5.02319	 -5.235683	
5.05645	 -5.237583	
5.08972	 -5.238114	
5.12298	 -5.236904	
5.15625	 -5.230112	
5.18952	 -5.217986	
5.22278	 -5.206335	
5.25605	 -5.204193	
5.28931	 -5.221103	
5.32258	 -5.253293	
5.35585	 -5.282542	
5.38911	 -5.298697	
5.42238	 -5.305680	
5.45565	 -5.307234	
5.48891	 -5.305711	
5.52218	 -5.305444	
5.55544	 -5.307364	
5.58871	 -5.308584	
5.62198	 -5.305707	
5.65524	 -5.297422	
5.68851	 -5.288862	
5.72177	 -5.286023	
5.75504	 -5.286813	
5.78831	 -5.288193	
5.82157	 -5.291614	
5.85484	 -5.295260	
5.8881	 -5.294965	
5.92137	 -5.291090	
5.95464	 -5.287093	
5.9879	 -5.286070	
6.02117	 -5.287112	
6.05444	 -5.286480	
6.0877	 -5.285391	
6.12097	 -5.287384	
6.15423	 -5.290471	
6.1875	 -5.291029	
6.22077	 -5.289066	
6.25403	 -5.287517	
6.2873	 -5.289427	
6.32056	 -5.292564	
6.35383	 -5.291652	
6.3871	 -5.287929	
6.42036	 -5.286690	
6.45363	 -5.288909	
6.4869	 -5.292398	
6.52016	 -5.293785	
6.55343	 -5.289484	
6.58669	 -5.279692	
6.61996	 -5.266384	
6.65323	 -5.249876	
6.68649	 -5.231403	
6.71976	 -5.214858	
6.75302	 -5.206455	
6.78629	 -5.209017	
6.81956	 -5.215936	
6.85282	 -5.220127	
6.88609	 -5.224183	
6.91935	 -5.235177	
6.95262	 -5.254689	
6.98589	 -5.274028	
7.01915	 -5.281887	
7.05242	 -5.278951	
7.08569	 -5.273988	
7.11895	 -5.269306	
7.15222	 -5.263737	
7.18548	 -5.259803	
7.21875	 -5.258853	
7.25202	 -5.260314	
7.28528	 -5.265040	
7.31855	 -5.270629	
7.35181	 -5.271916	
7.38508	 -5.268667	
7.41835	 -5.264701	
7.45161	 -5.263526	
7.48488	 -5.265919	
7.51815	 -5.267758	
7.55141	 -5.266610	
7.58468	 -5.265925	
7.61794	 -5.266023	
7.65121	 -5.263463	
7.68448	 -5.259002	
7.71774	 -5.255436	
7.75101	 -5.254036	
7.78427	 -5.255209	
7.81754	 -5.257156	
7.85081	 -5.258838	
7.88407	 -5.261154	
7.91734	 -5.259885	
7.9506	 -5.249075	
7.98387	 -5.233005	
8.01714	 -5.222767	
8.0504	 -5.221614	
8.08367	 -5.222012	
8.11694	 -5.215651	
8.1502	 -5.200307	
8.18347	 -5.179175	
8.21673	 -5.160309	
8.25	 -5.154284	
8.28327	 -5.163297	
8.31653	 -5.175746	
8.3498	 -5.179807	
8.38306	 -5.176892	
8.41633	 -5.174668	
8.4496	 -5.175665	
8.48286	 -5.178258	
8.51613	 -5.176368	
8.5494	 -5.163204	
8.58266	 -5.143749	
8.61593	 -5.129686	
8.64919	 -5.127438	
8.68246	 -5.134826	
8.71573	 -5.140237	
8.74899	 -5.136927	
8.78226	 -5.133194	
8.81552	 -5.135441	
8.84879	 -5.140383	
8.88206	 -5.148681	
8.91532	 -5.164566	
8.94859	 -5.185948	
8.98185	 -5.205696	
9.01512	 -5.214809	
9.04839	 -5.209178	
9.08165	 -5.193987	
9.11492	 -5.175976	
9.14819	 -5.163655	
9.18145	 -5.165615	
9.21472	 -5.176294	
9.24798	 -5.183007	
9.28125	 -5.182705	
9.31452	 -5.175100	
9.34778	 -5.158701	
9.38105	 -5.142138	
9.41431	 -5.137927	
9.44758	 -5.146933	
9.48085	 -5.161644	
9.51411	 -5.175956	
9.54738	 -5.188750	
9.58065	 -5.196551	
9.61391	 -5.188024	
9.64718	 -5.163413	
9.68044	 -5.142679	
9.71371	 -5.139350	
9.74698	 -5.150096	
9.78024	 -5.169640	
9.81351	 -5.194624	
9.84677	 -5.219246	
9.88004	 -5.235731	
9.91331	 -5.238401	
9.94657	 -5.232716	
9.97984	 -5.232079	
10.0131	 -5.238841	
10.0464	 -5.244576	
10.0796	 -5.247115	
10.1129	 -5.249211	
10.1462	 -5.250535	
10.1794	 -5.250998	
10.2127	 -5.250512	
10.246	 -5.247803	
10.2792	 -5.244811	
10.3125	 -5.244448	
10.3458	 -5.246969	
10.379	 -5.251826	
10.4123	 -5.256605	
10.4456	 -5.258951	
10.4788	 -5.260817	
10.5121	 -5.263046	
10.5454	 -5.263148	
10.5786	 -5.261218	
10.6119	 -5.258150	
10.6452	 -5.253219	
10.6784	 -5.247358	
10.7117	 -5.240503	
10.745	 -5.231790	
10.7782	 -5.225563	
10.8115	 -5.224177	
10.8448	 -5.220215	
10.878	 -5.202438	
10.9113	 -5.160727	
10.9446	 -5.096534	
